<?xml version="1.0" encoding="UTF-8"?>
<svg xmlns="http://www.w3.org/2000/svg" xmlns:xlink="http://www.w3.org/1999/xlink" width="504pt" height="72pt" viewBox="0 0 504 72" version="1.1">
<g id="surface16">
<rect x="0" y="0" width="504" height="72" style="fill:rgb(100%,100%,100%);fill-opacity:1;stroke:none;"/>
<path style="fill-rule:nonzero;fill:rgb(92.941176%,56.470588%,64.313725%);fill-opacity:1;stroke-width:0.75;stroke-linecap:round;stroke-linejoin:round;stroke:rgb(82.745098%,82.745098%,82.745098%);stroke-opacity:1;stroke-miterlimit:10;" d="M 20 68 L 86.285156 68 L 86.285156 4 L 20 4 Z M 20 68 "/>
<path style="fill-rule:nonzero;fill:rgb(82.745098%,63.529412%,38.823529%);fill-opacity:1;stroke-width:0.75;stroke-linecap:round;stroke-linejoin:round;stroke:rgb(82.745098%,82.745098%,82.745098%);stroke-opacity:1;stroke-miterlimit:10;" d="M 86.285156 68 L 152.570312 68 L 152.570312 4 L 86.285156 4 Z M 86.285156 68 "/>
<path style="fill-rule:nonzero;fill:rgb(60%,71.372549%,34.117647%);fill-opacity:1;stroke-width:0.75;stroke-linecap:round;stroke-linejoin:round;stroke:rgb(82.745098%,82.745098%,82.745098%);stroke-opacity:1;stroke-miterlimit:10;" d="M 152.570312 68 L 218.855469 68 L 218.855469 4 L 152.570312 4 Z M 152.570312 68 "/>
<path style="fill-rule:nonzero;fill:rgb(20%,75.686275%,57.254902%);fill-opacity:1;stroke-width:0.75;stroke-linecap:round;stroke-linejoin:round;stroke:rgb(82.745098%,82.745098%,82.745098%);stroke-opacity:1;stroke-miterlimit:10;" d="M 218.855469 68 L 285.140625 68 L 285.140625 4 L 218.855469 4 Z M 218.855469 68 "/>
<path style="fill-rule:nonzero;fill:rgb(0%,74.117647%,80.784314%);fill-opacity:1;stroke-width:0.75;stroke-linecap:round;stroke-linejoin:round;stroke:rgb(82.745098%,82.745098%,82.745098%);stroke-opacity:1;stroke-miterlimit:10;" d="M 285.144531 68 L 351.429688 68 L 351.429688 4 L 285.144531 4 Z M 285.144531 68 "/>
<path style="fill-rule:nonzero;fill:rgb(58.039216%,66.27451%,92.54902%);fill-opacity:1;stroke-width:0.75;stroke-linecap:round;stroke-linejoin:round;stroke:rgb(82.745098%,82.745098%,82.745098%);stroke-opacity:1;stroke-miterlimit:10;" d="M 351.429688 68 L 417.714844 68 L 417.714844 4 L 351.429688 4 Z M 351.429688 68 "/>
<path style="fill-rule:nonzero;fill:rgb(86.27451%,56.862745%,85.882353%);fill-opacity:1;stroke-width:0.75;stroke-linecap:round;stroke-linejoin:round;stroke:rgb(82.745098%,82.745098%,82.745098%);stroke-opacity:1;stroke-miterlimit:10;" d="M 417.714844 68 L 484 68 L 484 4 L 417.714844 4 Z M 417.714844 68 "/>
</g>
</svg>
