<?xml version="1.0" encoding="UTF-8"?>
<svg xmlns="http://www.w3.org/2000/svg" xmlns:xlink="http://www.w3.org/1999/xlink" width="504pt" height="72pt" viewBox="0 0 504 72" version="1.1">
<g id="surface36">
<rect x="0" y="0" width="504" height="72" style="fill:rgb(100%,100%,100%);fill-opacity:1;stroke:none;"/>
<path style="fill-rule:nonzero;fill:rgb(0.784314%,24.705882%,64.705882%);fill-opacity:1;stroke-width:0.75;stroke-linecap:round;stroke-linejoin:round;stroke:rgb(82.745098%,82.745098%,82.745098%);stroke-opacity:1;stroke-miterlimit:10;" d="M 20 68 L 86.285156 68 L 86.285156 4 L 20 4 Z M 20 68 "/>
<path style="fill-rule:nonzero;fill:rgb(49.019608%,52.941176%,72.54902%);fill-opacity:1;stroke-width:0.75;stroke-linecap:round;stroke-linejoin:round;stroke:rgb(82.745098%,82.745098%,82.745098%);stroke-opacity:1;stroke-miterlimit:10;" d="M 86.285156 68 L 152.570312 68 L 152.570312 4 L 86.285156 4 Z M 86.285156 68 "/>
<path style="fill-rule:nonzero;fill:rgb(74.509804%,75.686275%,83.137255%);fill-opacity:1;stroke-width:0.75;stroke-linecap:round;stroke-linejoin:round;stroke:rgb(82.745098%,82.745098%,82.745098%);stroke-opacity:1;stroke-miterlimit:10;" d="M 152.570312 68 L 218.855469 68 L 218.855469 4 L 152.570312 4 Z M 152.570312 68 "/>
<path style="fill-rule:nonzero;fill:rgb(88.627451%,88.627451%,88.627451%);fill-opacity:1;stroke-width:0.75;stroke-linecap:round;stroke-linejoin:round;stroke:rgb(82.745098%,82.745098%,82.745098%);stroke-opacity:1;stroke-miterlimit:10;" d="M 218.855469 68 L 285.140625 68 L 285.140625 4 L 218.855469 4 Z M 218.855469 68 "/>
<path style="fill-rule:nonzero;fill:rgb(83.921569%,73.72549%,75.294118%);fill-opacity:1;stroke-width:0.75;stroke-linecap:round;stroke-linejoin:round;stroke:rgb(82.745098%,82.745098%,82.745098%);stroke-opacity:1;stroke-miterlimit:10;" d="M 285.144531 68 L 351.429688 68 L 351.429688 4 L 285.144531 4 Z M 285.144531 68 "/>
<path style="fill-rule:nonzero;fill:rgb(73.333333%,46.666667%,51.764706%);fill-opacity:1;stroke-width:0.75;stroke-linecap:round;stroke-linejoin:round;stroke:rgb(82.745098%,82.745098%,82.745098%);stroke-opacity:1;stroke-miterlimit:10;" d="M 351.429688 68 L 417.714844 68 L 417.714844 4 L 351.429688 4 Z M 351.429688 68 "/>
<path style="fill-rule:nonzero;fill:rgb(55.686275%,2.352941%,23.137255%);fill-opacity:1;stroke-width:0.75;stroke-linecap:round;stroke-linejoin:round;stroke:rgb(82.745098%,82.745098%,82.745098%);stroke-opacity:1;stroke-miterlimit:10;" d="M 417.714844 68 L 484 68 L 484 4 L 417.714844 4 Z M 417.714844 68 "/>
</g>
</svg>
