<?xml version="1.0" encoding="UTF-8"?>
<svg xmlns="http://www.w3.org/2000/svg" xmlns:xlink="http://www.w3.org/1999/xlink" width="504pt" height="72pt" viewBox="0 0 504 72" version="1.1">
<g id="surface26">
<rect x="0" y="0" width="504" height="72" style="fill:rgb(100%,100%,100%);fill-opacity:1;stroke:none;"/>
<path style="fill-rule:nonzero;fill:rgb(1.568627%,1.568627%,1.568627%);fill-opacity:1;stroke-width:0.75;stroke-linecap:round;stroke-linejoin:round;stroke:rgb(82.745098%,82.745098%,82.745098%);stroke-opacity:1;stroke-miterlimit:10;" d="M 20 68 L 86.285156 68 L 86.285156 4 L 20 4 Z M 20 68 "/>
<path style="fill-rule:nonzero;fill:rgb(24.313725%,7.45098%,30.980392%);fill-opacity:1;stroke-width:0.75;stroke-linecap:round;stroke-linejoin:round;stroke:rgb(82.745098%,82.745098%,82.745098%);stroke-opacity:1;stroke-miterlimit:10;" d="M 86.285156 68 L 152.570312 68 L 152.570312 4 L 86.285156 4 Z M 86.285156 68 "/>
<path style="fill-rule:nonzero;fill:rgb(52.156863%,6.666667%,43.921569%);fill-opacity:1;stroke-width:0.75;stroke-linecap:round;stroke-linejoin:round;stroke:rgb(82.745098%,82.745098%,82.745098%);stroke-opacity:1;stroke-miterlimit:10;" d="M 152.570312 68 L 218.855469 68 L 218.855469 4 L 152.570312 4 Z M 152.570312 68 "/>
<path style="fill-rule:nonzero;fill:rgb(77.254902%,19.607843%,43.921569%);fill-opacity:1;stroke-width:0.75;stroke-linecap:round;stroke-linejoin:round;stroke:rgb(82.745098%,82.745098%,82.745098%);stroke-opacity:1;stroke-miterlimit:10;" d="M 218.855469 68 L 285.140625 68 L 285.140625 4 L 218.855469 4 Z M 218.855469 68 "/>
<path style="fill-rule:nonzero;fill:rgb(95.294118%,43.137255%,20.784314%);fill-opacity:1;stroke-width:0.75;stroke-linecap:round;stroke-linejoin:round;stroke:rgb(82.745098%,82.745098%,82.745098%);stroke-opacity:1;stroke-miterlimit:10;" d="M 285.144531 68 L 351.429688 68 L 351.429688 4 L 285.144531 4 Z M 285.144531 68 "/>
<path style="fill-rule:nonzero;fill:rgb(97.254902%,72.156863%,23.529412%);fill-opacity:1;stroke-width:0.75;stroke-linecap:round;stroke-linejoin:round;stroke:rgb(82.745098%,82.745098%,82.745098%);stroke-opacity:1;stroke-miterlimit:10;" d="M 351.429688 68 L 417.714844 68 L 417.714844 4 L 351.429688 4 Z M 351.429688 68 "/>
<path style="fill-rule:nonzero;fill:rgb(100%,99.607843%,61.960784%);fill-opacity:1;stroke-width:0.75;stroke-linecap:round;stroke-linejoin:round;stroke:rgb(82.745098%,82.745098%,82.745098%);stroke-opacity:1;stroke-miterlimit:10;" d="M 417.714844 68 L 484 68 L 484 4 L 417.714844 4 Z M 417.714844 68 "/>
</g>
</svg>
